<svg version="1.2" baseProfile="tiny-ps" xmlns="http://www.w3.org/2000/svg" viewBox="0 0 192 192" width="192" height="192">
	<title>finacelead_logo_2</title>
	<style>
		tspan { white-space:pre }
		.shp0 { fill: #335410 } 
		.shp1 { fill: #ffffff } 
	</style>
	<g id="Background">
		<path id="Path 0" class="shp0" d="M78 0.69C79.92 0.97 83.3 2.55 85.5 4.2C88.71 6.61 90.14 7.08 92.75 6.6C94.54 6.27 97.91 4.79 100.25 3.32C103.13 1.5 106.27 0.51 110 0.24C114.97 -0.12 115.77 0.12 118.31 2.67C119.85 4.23 122.21 7.41 123.56 9.75C125.92 13.86 126.11 13.97 129.25 13C131.04 12.45 135.31 12 138.75 12C142.19 12 146.46 12.61 148.25 13.36C150.04 14.11 152.4 15.73 153.5 16.97C154.75 18.37 155.48 20.57 155.45 22.85C155.42 25.1 154.44 27.84 152.88 30C151.5 31.92 149.04 34.46 147.43 35.63C145.82 36.81 140 38.97 134.5 40.44C129 41.91 121.8 43.69 112.5 45.65L118 51.15C121.03 54.18 126.88 58.81 131 61.45C135.13 64.09 140.97 67.86 144 69.83C147.03 71.79 151.97 75.45 154.98 77.95C157.99 80.45 161.82 84.04 163.48 85.93C165.14 87.82 167.8 91.42 169.39 93.93C170.98 96.44 173.43 101.65 174.82 105.5C177.04 111.61 177.36 114.15 177.4 125.5C177.43 134.92 176.95 140.29 175.67 145C174.69 148.57 172.46 154.42 170.7 157.98C168.64 162.15 165 166.97 160.5 171.49C155.28 176.73 151.34 179.58 145 182.71C140.32 185.02 132.9 187.93 128.5 189.18C121.27 191.23 118.33 191.45 98 191.47C79.3 191.5 74.15 191.18 67.5 189.6C63.1 188.55 56.58 186.51 53 185.06C49.42 183.62 44.02 180.8 41 178.81C37.98 176.83 33.52 173.02 31.11 170.35C28.7 167.68 25.73 163.93 24.52 162C23.31 160.07 21.06 155.35 19.53 151.5C18 147.65 16.14 141.13 15.41 137C14.67 132.88 14.07 125.22 14.06 120C14.05 114.78 14.5 108.47 15.04 106C15.59 103.53 17.26 99.03 18.77 96.01C20.27 93 23.76 88.27 26.52 85.51C29.28 82.76 34.68 78.66 38.52 76.41C42.36 74.16 48.65 70.82 52.5 69C56.35 67.18 62.2 63.95 65.5 61.82C68.8 59.7 72.35 56.51 73.39 54.73C74.43 52.95 75.56 49.13 75.89 46.24C76.45 41.44 76.32 40.98 74.5 40.97C73.4 40.96 70.47 41.65 68 42.5C65.53 43.35 61.14 44.03 58.25 44.02C54.27 44.01 51.52 43.21 46.9 40.75C43.54 38.96 39.15 36.12 37.15 34.42C35.14 32.73 32.71 29.69 31.75 27.67C30.79 25.65 30 22.2 30 20C30 17.8 30.45 14.88 31 13.5C31.55 12.13 32.85 10.1 33.89 9C35.28 7.53 37.09 7 40.64 7C43.31 7 47.98 7.92 56.5 11.11L59.5 8.85C61.15 7.6 64.3 5.38 66.5 3.9C68.7 2.43 71.4 0.99 72.5 0.7C73.6 0.41 76.08 0.4 78 0.69Z" />
		<path id="Path 1" class="shp1" d="M111.18 10.64C111.63 10.84 112.73 12.46 113.61 14.25C114.5 16.04 116.64 18.97 118.36 20.77C120.95 23.46 122.24 24.03 125.75 24.02C128.09 24.01 132.14 23.53 134.75 22.96C137.56 22.34 140.52 22.26 144.5 23.63L142 25.86C140.63 27.09 138.38 28.34 137 28.64C135.63 28.94 131.35 30.09 127.5 31.21C123.65 32.32 116.53 33.52 111.67 33.87C104.42 34.39 102.58 34.86 101.4 36.5C100.61 37.6 99.98 39.85 99.99 41.5C100.01 43.15 101.25 46.64 102.76 49.26C104.27 51.88 107.75 56.3 110.5 59.08C113.25 61.86 118.42 66.06 122 68.41C125.58 70.77 132.54 75.35 137.47 78.59C142.41 81.84 149.2 87.2 152.56 90.5C156.89 94.75 159.81 98.84 162.56 104.5C166.19 111.96 166.48 113.21 166.83 123C167.09 130.43 166.71 135.55 165.54 140.5C164.63 144.35 162.45 150.14 160.69 153.37C158.94 156.6 155.03 161.6 152 164.47C148.97 167.35 143.24 171.34 139.25 173.35C135.26 175.36 128.06 177.99 123.25 179.2C116.06 181.01 111.64 181.41 98.5 181.42C89.46 181.43 79.24 180.86 75 180.1C70.88 179.37 64.13 177.55 60 176.08C55.88 174.6 49.8 171.52 46.5 169.24C43.2 166.95 38.87 162.93 36.87 160.29C34.87 157.66 32.23 153.47 30.99 151C29.76 148.53 27.9 143.13 26.86 139C25.82 134.88 24.69 127.9 24.36 123.5C23.91 117.66 24.2 113.75 25.41 109C26.32 105.42 28.43 100.47 30.11 98C31.78 95.53 35.7 91.61 38.83 89.31C41.95 87 51.02 81.83 59 77.82C69.88 72.35 74.75 69.27 78.5 65.5C81.47 62.52 84 58.86 84.73 56.49C85.41 54.3 85.97 48.79 85.98 44.25C86 36.41 85.85 35.85 83 33C80.67 30.67 79.11 30 76 30C73.8 30 68.96 30.93 58.5 34.15L52.5 31.18C49.2 29.55 45.26 27.04 43.75 25.61C41.94 23.89 41 21.97 41 17L46.75 19.17C49.91 20.36 54.34 21.37 56.58 21.42C59.87 21.48 61.7 20.71 66.08 17.41C69.06 15.17 72.63 12.76 74 12.08C76.25 10.95 76.95 11.16 81 14.16C84.82 17 86.33 17.5 91 17.5C95.37 17.5 97.92 16.76 103.43 13.89C107.24 11.9 110.73 10.44 111.18 10.64Z" />
		<path id="Path 2" class="shp0" d="M90.48 84.21C92.17 84.45 92.54 85.35 93 95L102 95L102 91C102 88.23 102.54 86.7 103.75 86.03C104.94 85.38 106.05 85.46 107.2 86.28C108.26 87.04 109.02 89.16 109.2 91.87C109.49 96.11 109.64 96.29 114.5 98.1C117.25 99.12 121.19 101.32 123.25 102.98C125.86 105.09 126.92 106.68 126.75 108.25C126.58 109.82 125.74 110.59 124 110.8C122.56 110.97 120.66 110.28 119.5 109.16C118.4 108.1 116.04 106.51 114.25 105.62C112.46 104.73 110.55 104 110 104C109.4 104 109 108 109 124L115.25 125.98C118.69 127.08 123.4 129.21 125.71 130.73C128.03 132.26 130.62 134.74 131.46 136.25C132.31 137.76 132.99 140.46 132.97 142.25C132.94 144.69 132 146.37 129.2 149C127.04 151.02 123.14 153.23 119.98 154.22C116.96 155.17 113.26 156.18 111.75 156.47C109.52 156.9 108.95 157.59 108.75 160.15C108.61 161.88 107.75 163.79 106.84 164.4C105.57 165.24 104.78 165.14 103.54 164C102.65 163.18 101.93 161.26 101.96 159.75C102 157.15 101.75 157 97.5 157C93.32 157 92.98 157.19 92.75 159.75C92.56 161.85 91.91 162.57 90 162.81C88.63 162.98 87.17 162.53 86.77 161.81C86.36 161.09 86.03 159.38 86.04 158C86.04 155.95 85.01 155 80.27 152.68C77.1 151.12 73.38 148.87 72 147.66C70.63 146.45 68.26 144.01 66.75 142.23C65.24 140.45 64 137.88 64 136.5C64 134.76 64.68 133.82 66.25 133.39C67.81 132.97 68.89 133.35 69.76 134.64C70.45 135.66 72.02 137.77 73.26 139.32C74.49 140.87 77.3 143.23 79.5 144.55C81.7 145.87 84.06 146.97 84.75 146.98C85.69 146.99 85.94 144.34 85.5 125.69L80.5 123.99C77.75 123.06 73.92 121.51 72 120.53C70.08 119.56 67.44 117.81 66.14 116.63C64.85 115.46 63.39 113.49 62.89 112.25C62.3 110.76 62.45 108.9 63.32 106.75C64.04 104.96 66.18 102.5 68.07 101.28C69.95 100.06 74.76 98.26 85.99 95.5L85.79 90.95C85.67 88.04 86.12 85.95 87.03 85.16C87.82 84.48 89.37 84.05 90.48 84.21Z" />
		<path id="Path 3" class="shp1" d="M93 102L102 102L102 122L98.25 121.41C96.19 121.08 94.16 120.63 93.75 120.41C93.34 120.18 93 115.95 93 111L93 102ZM83.75 103.04C85.89 103 86 103.38 86 110.5C86 114.83 85.58 118 85 118C84.45 118 81.64 117.12 78.75 116.04C75.86 114.97 72.49 112.94 69 109L71.75 107.26C73.26 106.31 76.08 104.98 78 104.31C79.92 103.64 82.51 103.07 83.75 103.04ZM94.25 127.99C94.94 127.98 96.97 128.32 102.05 129.5L102.02 140.25C102 150.87 101.97 150.99 99.75 150.51C98.51 150.25 96.49 150.02 95.25 150.01C93.05 150 93 149.74 93 139C93 130.87 93.33 128 94.25 127.99ZM108.81 131.14L111.66 131.94C113.22 132.38 116.71 133.81 119.41 135.12C122.11 136.43 124.91 138.4 125.63 139.5C126.76 141.2 126.7 141.78 125.23 143.4C124.28 144.44 121.7 146.08 119.5 147.04C117.3 148.01 114.04 149.07 109 150L108.91 140.57L108.81 131.14Z" />
	</g>
</svg>